<svg width="49" height="49" viewBox="0 0 49 49" fill="none" xmlns="http://www.w3.org/2000/svg">
<path fill-rule="evenodd" clip-rule="evenodd" d="M17.2153 3.66408H30.9892C31.328 3.66408 31.6536 3.79557 31.8974 4.03085L40.4902 12.3239C40.7455 12.5703 40.8898 12.91 40.8898 13.2649V19.379C40.8898 19.7149 40.7605 20.038 40.5287 20.2812L32.4554 27.5171C32.2086 27.7762 31.8664 27.9227 31.5086 27.9227H17.0112C16.8082 27.9227 16.6079 27.8755 16.4263 27.7847L15.3947 27.2688V28.2417C15.3947 28.5952 15.5311 30.1766 15.7846 30.4228L18.8218 33.3733C19.0659 33.6104 19.3928 33.743 19.7331 33.743H35.3317C36.054 33.743 36.6395 34.3285 36.6395 35.0508V40.9358C36.6395 41.658 36.054 42.2436 35.3317 42.2436H15.9397C15.587 42.2436 15.2492 42.1011 15.0031 41.8484L7.47658 34.1239C7.23863 33.8797 7.10547 33.5522 7.10547 33.2112V13.2738C7.10547 12.9137 7.25396 12.5695 7.51593 12.3224L16.318 4.02049C16.5607 3.79158 16.8817 3.66408 17.2153 3.66408ZM20.0816 12.3826H28.2406C28.5936 12.3826 28.9317 12.5254 29.1779 12.7784L32.4554 16.1469C32.6226 16.3188 32.7161 16.5491 32.7161 16.7889C32.7161 17.0375 32.6156 17.2756 32.4373 17.4489L29.1801 19.379C28.936 19.6163 28.609 19.7491 28.2685 19.7491H20.0669C19.7265 19.7491 19.3994 19.6163 19.1553 19.379L15.8849 17.4489C15.7066 17.2756 15.606 17.0375 15.606 16.7889C15.606 16.5491 15.6996 16.3188 15.8668 16.1469L19.1443 12.7784C19.3905 12.5254 19.7285 12.3826 20.0816 12.3826Z" fill="#0F52BA"/>
</svg>
