<svg width="34" height="39" viewBox="0 0 34 39" fill="none" xmlns="http://www.w3.org/2000/svg">
<path fill-rule="evenodd" clip-rule="evenodd" d="M10.2175 0.0694771H23.9914C24.3302 0.0694771 24.6558 0.200966 24.8996 0.436249L33.4924 8.72929C33.7477 8.97575 33.892 9.3154 33.892 9.6703V15.7844C33.892 16.1203 33.7627 16.4434 33.5309 16.6866L25.4576 23.9225C25.2108 24.1815 24.8686 24.3281 24.5108 24.3281H10.0134C9.81037 24.3281 9.61013 24.2809 9.42854 24.1901L8.39689 23.6742V24.6471C8.39689 25.0006 8.53331 26.582 8.78681 26.8282L11.824 29.7787C12.0681 30.0158 12.395 30.1484 12.7353 30.1484H28.3339C29.0562 30.1484 29.6417 30.7339 29.6417 31.4562V37.3412C29.6417 38.0634 29.0562 38.649 28.3339 38.649H8.94194C8.58921 38.649 8.25143 38.5065 8.00527 38.2538L0.478775 30.5293C0.240829 30.2851 0.107666 29.9576 0.107666 29.6166V9.67918C0.107666 9.31907 0.256158 8.97489 0.518128 8.72781L9.32017 0.425884C9.56287 0.196977 9.88387 0.0694771 10.2175 0.0694771ZM13.0838 8.788H21.2428C21.5958 8.788 21.9339 8.93075 22.1801 9.1838L25.4576 12.5523C25.6248 12.7242 25.7183 12.9545 25.7183 13.1943C25.7183 13.4429 25.6178 13.681 25.4395 13.8543L22.1823 15.7844C21.9382 16.0217 21.6112 16.1545 21.2707 16.1545H13.0691C12.7287 16.1545 12.4016 16.0217 12.1575 15.7844L8.88709 13.8543C8.70881 13.681 8.60823 13.4429 8.60823 13.1943C8.60823 12.9545 8.70179 12.7242 8.869 12.5523L12.1465 9.1838C12.3927 8.93075 12.7307 8.788 13.0838 8.788Z" fill="#0F52BA"/>
</svg>
