<svg width="346" height="537" viewBox="0 0 346 537" fill="none" xmlns="http://www.w3.org/2000/svg">
<line x1="63.5432" y1="536.007" x2="63.5432" y2="0.138123" stroke="url(#paint0_linear_57_12)" stroke-opacity="0.5" stroke-dasharray="3 4"/>
<line x1="172.302" y1="536.007" x2="172.302" y2="0.138123" stroke="url(#paint1_linear_57_12)" stroke-opacity="0.5" stroke-dasharray="3 4"/>
<line x1="291.147" y1="536.007" x2="291.147" y2="0.138123" stroke="url(#paint2_linear_57_12)" stroke-opacity="0.5" stroke-dasharray="3 4"/>
<line x1="345.592" y1="455.855" x2="0.0122375" y2="455.855" stroke="url(#paint3_linear_57_12)" stroke-opacity="0.5" stroke-dasharray="3 4"/>
<line x1="345.592" y1="86.2078" x2="0.0122375" y2="86.2077" stroke="url(#paint4_linear_57_12)" stroke-opacity="0.5" stroke-dasharray="3 4"/>
<circle cx="284.988" cy="81.0316" r="32.2951" transform="rotate(-90 284.988 81.0316)" stroke="#434343" stroke-opacity="0.3" stroke-dasharray="3 4"/>
<circle cx="60.7125" cy="458.961" r="16.2808" transform="rotate(-90 60.7125 458.961)" stroke="#434343" stroke-opacity="0.3" stroke-dasharray="3 4"/>
<path fill-rule="evenodd" clip-rule="evenodd" d="M345.592 205.031H344.08V206.031L345.592 206.031V205.031ZM340.05 205.031H337.028V206.031L340.05 206.031V205.031ZM332.998 205.031H329.975V206.031L332.998 206.031V205.031ZM325.945 205.031H322.923V206.031L325.945 206.031L325.945 205.031ZM318.892 205.031H315.87V206.031L318.892 206.031V205.031ZM311.84 205.031H308.817V206.031L311.84 206.031V205.031ZM304.787 205.031H301.765V206.031L304.787 206.031V205.031ZM297.735 205.031H294.712V206.031L297.735 206.031V205.031ZM57.9447 205.031L54.9221 205.031V206.031L57.9447 206.031V205.031ZM50.892 205.031L47.8695 205.031V206.031L50.892 206.031V205.031ZM43.8394 205.031L40.8168 205.031V206.031L43.8394 206.031V205.031ZM36.7867 205.031L33.7642 205.031V206.031L36.7867 206.031V205.031ZM29.7341 205.031L26.7115 205.031V206.031L29.7341 206.031V205.031ZM22.6815 205.031L19.6589 205.031V206.031L22.6815 206.031V205.031ZM15.6288 205.031L12.6063 205.031V206.031L15.6288 206.031V205.031ZM8.57617 205.031L5.55362 205.031V206.031L8.57617 206.031V205.031ZM1.52353 205.031L0.012207 205.031V206.031L1.52353 206.031V205.031Z" fill="url(#paint5_linear_57_12)"/>
<path fill-rule="evenodd" clip-rule="evenodd" d="M345.592 330.212H344.08V331.212L345.592 331.212V330.212ZM340.05 330.212H337.028V331.212L340.05 331.212V330.212ZM332.998 330.212H329.975V331.212L332.998 331.212V330.212ZM325.945 330.212H322.923V331.212L325.945 331.212L325.945 330.212ZM318.892 330.212H315.87V331.212L318.892 331.212V330.212ZM311.84 330.212H308.817V331.212L311.84 331.212V330.212ZM304.787 330.212H301.765V331.212L304.787 331.212V330.212ZM297.735 330.212H294.712V331.212L297.735 331.212V330.212ZM57.9447 330.212L54.9221 330.212V331.212L57.9447 331.212V330.212ZM50.892 330.212L47.8695 330.212V331.212L50.892 331.212V330.212ZM43.8394 330.212L40.8168 330.212V331.212L43.8394 331.212V330.212ZM36.7867 330.212L33.7642 330.212V331.212L36.7867 331.212V330.212ZM29.7341 330.212L26.7115 330.212V331.212L29.7341 331.212V330.212ZM22.6815 330.212L19.6589 330.212V331.212L22.6815 331.212V330.212ZM15.6288 330.212L12.6063 330.212V331.212L15.6288 331.212V330.212ZM8.57617 330.212L5.55362 330.212V331.212L8.57617 331.212V330.212ZM1.52353 330.212L0.012207 330.212V331.212L1.52353 331.212V330.212Z" fill="url(#paint6_linear_57_12)"/>
<defs>
<linearGradient id="paint0_linear_57_12" x1="64.0322" y1="0.138123" x2="64.0343" y2="536.007" gradientUnits="userSpaceOnUse">
<stop stop-color="#797979" stop-opacity="0"/>
<stop offset="0.128891" stop-color="#585858" stop-opacity="0.5"/>
<stop offset="0.873713" stop-color="#434343" stop-opacity="0.5"/>
<stop offset="1" stop-color="#797979" stop-opacity="0"/>
</linearGradient>
<linearGradient id="paint1_linear_57_12" x1="172.791" y1="0.138123" x2="172.793" y2="536.007" gradientUnits="userSpaceOnUse">
<stop stop-color="#797979" stop-opacity="0"/>
<stop offset="0.128891" stop-color="#585858" stop-opacity="0.5"/>
<stop offset="0.873713" stop-color="#434343" stop-opacity="0.5"/>
<stop offset="1" stop-color="#797979" stop-opacity="0"/>
</linearGradient>
<linearGradient id="paint2_linear_57_12" x1="291.636" y1="0.138123" x2="291.638" y2="536.007" gradientUnits="userSpaceOnUse">
<stop stop-color="#797979" stop-opacity="0"/>
<stop offset="0.128891" stop-color="#585858" stop-opacity="0.5"/>
<stop offset="0.873713" stop-color="#434343" stop-opacity="0.5"/>
<stop offset="1" stop-color="#797979" stop-opacity="0"/>
</linearGradient>
<linearGradient id="paint3_linear_57_12" x1="0.0122376" y1="455.366" x2="345.592" y2="455.365" gradientUnits="userSpaceOnUse">
<stop stop-color="#797979" stop-opacity="0"/>
<stop offset="0.128891" stop-color="#585858" stop-opacity="0.5"/>
<stop offset="0.873713" stop-color="#434343" stop-opacity="0.5"/>
<stop offset="1" stop-color="#797979" stop-opacity="0"/>
</linearGradient>
<linearGradient id="paint4_linear_57_12" x1="0.0122376" y1="85.7188" x2="345.592" y2="85.7179" gradientUnits="userSpaceOnUse">
<stop stop-color="#797979" stop-opacity="0"/>
<stop offset="0.128891" stop-color="#585858" stop-opacity="0.5"/>
<stop offset="0.873713" stop-color="#434343" stop-opacity="0.5"/>
<stop offset="1" stop-color="#797979" stop-opacity="0"/>
</linearGradient>
<linearGradient id="paint5_linear_57_12" x1="345.592" y1="205.02" x2="0.012207" y2="205.021" gradientUnits="userSpaceOnUse">
<stop stop-color="#797979" stop-opacity="0"/>
<stop offset="0.216134" stop-color="#585858" stop-opacity="0.3"/>
<stop offset="0.747406" stop-color="#434343" stop-opacity="0.3"/>
<stop offset="1" stop-color="#797979" stop-opacity="0"/>
</linearGradient>
<linearGradient id="paint6_linear_57_12" x1="345.592" y1="330.201" x2="0.012207" y2="330.202" gradientUnits="userSpaceOnUse">
<stop stop-color="#797979" stop-opacity="0"/>
<stop offset="0.216134" stop-color="#585858" stop-opacity="0.3"/>
<stop offset="0.747406" stop-color="#434343" stop-opacity="0.3"/>
<stop offset="1" stop-color="#797979" stop-opacity="0"/>
</linearGradient>
</defs>
</svg>
