<svg width="356" height="537" viewBox="0 0 356 537" fill="none" xmlns="http://www.w3.org/2000/svg">
<line x1="61.5657" y1="536.668" x2="61.5657" y2="0.798645" stroke="url(#paint0_linear_50_614)" stroke-dasharray="3 4"/>
<line x1="170.324" y1="536.668" x2="170.324" y2="0.798645" stroke="url(#paint1_linear_50_614)" stroke-dasharray="3 4"/>
<line x1="289.17" y1="536.668" x2="289.17" y2="0.798645" stroke="url(#paint2_linear_50_614)" stroke-dasharray="3 4"/>
<path d="M345.712 330.518L344.925 330.518V330.957H345.712V330.518Z" fill="url(#paint3_linear_50_614)"/>
<path d="M342.824 330.518L341.248 330.518V330.957H342.824V330.518Z" fill="url(#paint4_linear_50_614)"/>
<path d="M339.147 330.518L337.572 330.518V330.957H339.147V330.518Z" fill="url(#paint5_linear_50_614)"/>
<path d="M335.471 330.518L333.895 330.518V330.957H335.471V330.518Z" fill="url(#paint6_linear_50_614)"/>
<path d="M331.795 330.518L330.219 330.518V330.957H331.795V330.518Z" fill="url(#paint7_linear_50_614)"/>
<path d="M328.118 330.518L326.543 330.518V330.957H328.118V330.518Z" fill="url(#paint8_linear_50_614)"/>
<path d="M324.442 330.518L322.866 330.518V330.957H324.442V330.518Z" fill="url(#paint9_linear_50_614)"/>
<path d="M320.766 330.518L319.19 330.518V330.957L320.766 330.957V330.518Z" fill="url(#paint10_linear_50_614)"/>
<path d="M317.089 330.518L315.514 330.518L315.514 330.957L317.089 330.957V330.518Z" fill="url(#paint11_linear_50_614)"/>
<path d="M313.413 330.518L311.837 330.518V330.957L313.413 330.957V330.518Z" fill="url(#paint12_linear_50_614)"/>
<path d="M309.736 330.518L308.161 330.518V330.957L309.736 330.957V330.518Z" fill="url(#paint13_linear_50_614)"/>
<path d="M306.06 330.518L304.484 330.518V330.957L306.06 330.957V330.518Z" fill="url(#paint14_linear_50_614)"/>
<path d="M302.384 330.518L300.808 330.518V330.957L302.384 330.957V330.518Z" fill="url(#paint15_linear_50_614)"/>
<path d="M298.707 330.518L297.132 330.518V330.957L298.707 330.957V330.518Z" fill="url(#paint16_linear_50_614)"/>
<path d="M295.031 330.518L293.455 330.518V330.957L295.031 330.957L295.031 330.518Z" fill="url(#paint17_linear_50_614)"/>
<path d="M291.354 330.518L289.779 330.518V330.957L291.354 330.957V330.518Z" fill="url(#paint18_linear_50_614)"/>
<path d="M59.7428 330.518L58.1672 330.518V330.957L59.7428 330.957V330.518Z" fill="url(#paint19_linear_50_614)"/>
<path d="M56.0664 330.518L54.4908 330.518V330.957L56.0664 330.957V330.518Z" fill="url(#paint20_linear_50_614)"/>
<path d="M52.39 330.518L50.8144 330.518V330.957L52.39 330.957V330.518Z" fill="url(#paint21_linear_50_614)"/>
<path d="M48.7136 330.518L47.138 330.518V330.957L48.7136 330.957V330.518Z" fill="url(#paint22_linear_50_614)"/>
<path d="M45.0372 330.518L43.4616 330.518V330.957L45.0372 330.957V330.518Z" fill="url(#paint23_linear_50_614)"/>
<path d="M41.3608 330.518L39.7852 330.518V330.957L41.3608 330.957V330.518Z" fill="url(#paint24_linear_50_614)"/>
<path d="M37.6844 330.518L36.1088 330.518V330.957L37.6844 330.957V330.518Z" fill="url(#paint25_linear_50_614)"/>
<path d="M34.008 330.518L32.4324 330.518V330.957L34.008 330.957V330.518Z" fill="url(#paint26_linear_50_614)"/>
<path d="M30.3316 330.518L28.756 330.518V330.957L30.3316 330.957V330.518Z" fill="url(#paint27_linear_50_614)"/>
<path d="M26.6552 330.518L25.0796 330.518V330.957L26.6552 330.957V330.518Z" fill="url(#paint28_linear_50_614)"/>
<path d="M22.9788 330.518L21.4032 330.518V330.957L22.9788 330.957V330.518Z" fill="url(#paint29_linear_50_614)"/>
<path d="M19.3024 330.518L17.7268 330.518V330.957L19.3024 330.957V330.518Z" fill="url(#paint30_linear_50_614)"/>
<path d="M15.626 330.518L14.0504 330.518V330.957L15.626 330.957V330.518Z" fill="url(#paint31_linear_50_614)"/>
<path d="M11.9496 330.518L10.374 330.518V330.957L11.9496 330.957V330.518Z" fill="url(#paint32_linear_50_614)"/>
<path d="M8.2732 330.518L6.69759 330.518V330.957L8.2732 330.957V330.518Z" fill="url(#paint33_linear_50_614)"/>
<path d="M4.59679 330.518L3.02119 330.518V330.957L4.59679 330.957V330.518Z" fill="url(#paint34_linear_50_614)"/>
<path d="M0.920391 330.518L0.132813 330.518L0.132812 330.957L0.920391 330.957V330.518Z" fill="url(#paint35_linear_50_614)"/>
<path d="M345.712 207.354L344.925 207.354V207.794H345.712V207.354Z" fill="url(#paint36_linear_50_614)"/>
<path d="M342.824 207.354L341.248 207.354V207.794H342.824V207.354Z" fill="url(#paint37_linear_50_614)"/>
<path d="M339.147 207.354L337.572 207.354V207.794H339.147V207.354Z" fill="url(#paint38_linear_50_614)"/>
<path d="M335.471 207.354L333.895 207.354V207.794H335.471V207.354Z" fill="url(#paint39_linear_50_614)"/>
<path d="M331.795 207.354L330.219 207.354V207.794H331.795V207.354Z" fill="url(#paint40_linear_50_614)"/>
<path d="M328.118 207.354L326.543 207.354V207.794H328.118V207.354Z" fill="url(#paint41_linear_50_614)"/>
<path d="M324.442 207.354L322.866 207.354V207.794H324.442V207.354Z" fill="url(#paint42_linear_50_614)"/>
<path d="M320.766 207.354L319.19 207.354V207.794L320.766 207.794V207.354Z" fill="url(#paint43_linear_50_614)"/>
<path d="M317.089 207.354L315.514 207.354L315.514 207.794L317.089 207.794V207.354Z" fill="url(#paint44_linear_50_614)"/>
<path d="M313.413 207.354L311.837 207.354V207.794L313.413 207.794V207.354Z" fill="url(#paint45_linear_50_614)"/>
<path d="M309.736 207.354L308.161 207.354V207.794L309.736 207.794V207.354Z" fill="url(#paint46_linear_50_614)"/>
<path d="M306.06 207.354L304.484 207.354V207.794L306.06 207.794V207.354Z" fill="url(#paint47_linear_50_614)"/>
<path d="M302.384 207.354L300.808 207.354V207.794L302.384 207.794V207.354Z" fill="url(#paint48_linear_50_614)"/>
<path d="M298.707 207.354L297.132 207.354V207.794L298.707 207.794V207.354Z" fill="url(#paint49_linear_50_614)"/>
<path d="M295.031 207.354L293.455 207.354V207.794L295.031 207.794L295.031 207.354Z" fill="url(#paint50_linear_50_614)"/>
<path d="M291.354 207.354L289.779 207.354V207.794L291.354 207.794V207.354Z" fill="url(#paint51_linear_50_614)"/>
<path d="M59.7428 207.354L58.1672 207.354V207.794L59.7428 207.794V207.354Z" fill="url(#paint52_linear_50_614)"/>
<path d="M56.0664 207.354L54.4908 207.354V207.794L56.0664 207.794V207.354Z" fill="url(#paint53_linear_50_614)"/>
<path d="M52.39 207.354L50.8144 207.354V207.794L52.39 207.794V207.354Z" fill="url(#paint54_linear_50_614)"/>
<path d="M48.7136 207.354L47.138 207.354V207.794L48.7136 207.794V207.354Z" fill="url(#paint55_linear_50_614)"/>
<path d="M45.0372 207.354L43.4616 207.354V207.794L45.0372 207.794V207.354Z" fill="url(#paint56_linear_50_614)"/>
<path d="M41.3608 207.354L39.7852 207.354V207.794L41.3608 207.794V207.354Z" fill="url(#paint57_linear_50_614)"/>
<path d="M37.6844 207.354L36.1088 207.354V207.794L37.6844 207.794V207.354Z" fill="url(#paint58_linear_50_614)"/>
<path d="M34.008 207.354L32.4324 207.354V207.794L34.008 207.794V207.354Z" fill="url(#paint59_linear_50_614)"/>
<path d="M30.3316 207.354L28.756 207.354V207.794L30.3316 207.794V207.354Z" fill="url(#paint60_linear_50_614)"/>
<path d="M26.6552 207.354L25.0796 207.354V207.794L26.6552 207.794V207.354Z" fill="url(#paint61_linear_50_614)"/>
<path d="M22.9788 207.354L21.4032 207.354V207.794L22.9788 207.794V207.354Z" fill="url(#paint62_linear_50_614)"/>
<path d="M19.3024 207.354L17.7268 207.354V207.794L19.3024 207.794V207.354Z" fill="url(#paint63_linear_50_614)"/>
<path d="M15.626 207.354L14.0504 207.354V207.794L15.626 207.794V207.354Z" fill="url(#paint64_linear_50_614)"/>
<path d="M11.9496 207.354L10.374 207.354V207.794L11.9496 207.794V207.354Z" fill="url(#paint65_linear_50_614)"/>
<path d="M8.2732 207.354L6.69759 207.354V207.794L8.2732 207.794V207.354Z" fill="url(#paint66_linear_50_614)"/>
<path d="M4.59679 207.354L3.02119 207.354V207.794L4.59679 207.794V207.354Z" fill="url(#paint67_linear_50_614)"/>
<path d="M0.920391 207.354L0.132813 207.354L0.132812 207.794L0.920391 207.794V207.354Z" fill="url(#paint68_linear_50_614)"/>
<line x1="355.408" y1="77.5594" x2="9.82816" y2="77.5594" stroke="url(#paint69_linear_50_614)" stroke-dasharray="3 4"/>
<line x1="355.408" y1="454.654" x2="9.82816" y2="454.654" stroke="url(#paint70_linear_50_614)" stroke-dasharray="3 4"/>
<circle cx="283.011" cy="81.6921" r="32.2951" transform="rotate(-90 283.011 81.6921)" stroke="#434343" stroke-dasharray="3 4"/>
<circle cx="58.735" cy="459.622" r="16.2808" transform="rotate(-90 58.735 459.622)" stroke="#434343" stroke-dasharray="3 4"/>
<defs>
<linearGradient id="paint0_linear_50_614" x1="62.0546" y1="0.798645" x2="62.0568" y2="536.668" gradientUnits="userSpaceOnUse">
<stop stop-color="#797979" stop-opacity="0"/>
<stop offset="0.128891" stop-color="#585858"/>
<stop offset="0.873713" stop-color="#434343"/>
<stop offset="1" stop-color="#797979" stop-opacity="0"/>
</linearGradient>
<linearGradient id="paint1_linear_50_614" x1="170.813" y1="0.798645" x2="170.816" y2="536.668" gradientUnits="userSpaceOnUse">
<stop stop-color="#797979" stop-opacity="0"/>
<stop offset="0.128891" stop-color="#585858"/>
<stop offset="0.873713" stop-color="#434343"/>
<stop offset="1" stop-color="#797979" stop-opacity="0"/>
</linearGradient>
<linearGradient id="paint2_linear_50_614" x1="289.659" y1="0.798645" x2="289.661" y2="536.668" gradientUnits="userSpaceOnUse">
<stop stop-color="#797979" stop-opacity="0"/>
<stop offset="0.128891" stop-color="#585858"/>
<stop offset="0.873713" stop-color="#434343"/>
<stop offset="1" stop-color="#797979" stop-opacity="0"/>
</linearGradient>
<linearGradient id="paint3_linear_50_614" x1="0.132813" y1="330.737" x2="345.712" y2="330.737" gradientUnits="userSpaceOnUse">
<stop stop-color="#585858" stop-opacity="0"/>
<stop offset="0.148423" stop-color="#585858"/>
<stop offset="0.861994" stop-color="#585858"/>
<stop offset="1" stop-color="#585858" stop-opacity="0"/>
</linearGradient>
<linearGradient id="paint4_linear_50_614" x1="0.132813" y1="330.737" x2="345.712" y2="330.737" gradientUnits="userSpaceOnUse">
<stop stop-color="#585858" stop-opacity="0"/>
<stop offset="0.148423" stop-color="#585858"/>
<stop offset="0.861994" stop-color="#585858"/>
<stop offset="1" stop-color="#585858" stop-opacity="0"/>
</linearGradient>
<linearGradient id="paint5_linear_50_614" x1="0.132813" y1="330.737" x2="345.712" y2="330.737" gradientUnits="userSpaceOnUse">
<stop stop-color="#585858" stop-opacity="0"/>
<stop offset="0.148423" stop-color="#585858"/>
<stop offset="0.861994" stop-color="#585858"/>
<stop offset="1" stop-color="#585858" stop-opacity="0"/>
</linearGradient>
<linearGradient id="paint6_linear_50_614" x1="0.132813" y1="330.737" x2="345.712" y2="330.737" gradientUnits="userSpaceOnUse">
<stop stop-color="#585858" stop-opacity="0"/>
<stop offset="0.148423" stop-color="#585858"/>
<stop offset="0.861994" stop-color="#585858"/>
<stop offset="1" stop-color="#585858" stop-opacity="0"/>
</linearGradient>
<linearGradient id="paint7_linear_50_614" x1="0.132813" y1="330.737" x2="345.712" y2="330.737" gradientUnits="userSpaceOnUse">
<stop stop-color="#585858" stop-opacity="0"/>
<stop offset="0.148423" stop-color="#585858"/>
<stop offset="0.861994" stop-color="#585858"/>
<stop offset="1" stop-color="#585858" stop-opacity="0"/>
</linearGradient>
<linearGradient id="paint8_linear_50_614" x1="0.132813" y1="330.737" x2="345.712" y2="330.737" gradientUnits="userSpaceOnUse">
<stop stop-color="#585858" stop-opacity="0"/>
<stop offset="0.148423" stop-color="#585858"/>
<stop offset="0.861994" stop-color="#585858"/>
<stop offset="1" stop-color="#585858" stop-opacity="0"/>
</linearGradient>
<linearGradient id="paint9_linear_50_614" x1="0.132813" y1="330.737" x2="345.712" y2="330.737" gradientUnits="userSpaceOnUse">
<stop stop-color="#585858" stop-opacity="0"/>
<stop offset="0.148423" stop-color="#585858"/>
<stop offset="0.861994" stop-color="#585858"/>
<stop offset="1" stop-color="#585858" stop-opacity="0"/>
</linearGradient>
<linearGradient id="paint10_linear_50_614" x1="0.132813" y1="330.737" x2="345.712" y2="330.737" gradientUnits="userSpaceOnUse">
<stop stop-color="#585858" stop-opacity="0"/>
<stop offset="0.148423" stop-color="#585858"/>
<stop offset="0.861994" stop-color="#585858"/>
<stop offset="1" stop-color="#585858" stop-opacity="0"/>
</linearGradient>
<linearGradient id="paint11_linear_50_614" x1="0.132813" y1="330.737" x2="345.712" y2="330.737" gradientUnits="userSpaceOnUse">
<stop stop-color="#585858" stop-opacity="0"/>
<stop offset="0.148423" stop-color="#585858"/>
<stop offset="0.861994" stop-color="#585858"/>
<stop offset="1" stop-color="#585858" stop-opacity="0"/>
</linearGradient>
<linearGradient id="paint12_linear_50_614" x1="0.132813" y1="330.737" x2="345.712" y2="330.737" gradientUnits="userSpaceOnUse">
<stop stop-color="#585858" stop-opacity="0"/>
<stop offset="0.148423" stop-color="#585858"/>
<stop offset="0.861994" stop-color="#585858"/>
<stop offset="1" stop-color="#585858" stop-opacity="0"/>
</linearGradient>
<linearGradient id="paint13_linear_50_614" x1="0.132813" y1="330.737" x2="345.712" y2="330.737" gradientUnits="userSpaceOnUse">
<stop stop-color="#585858" stop-opacity="0"/>
<stop offset="0.148423" stop-color="#585858"/>
<stop offset="0.861994" stop-color="#585858"/>
<stop offset="1" stop-color="#585858" stop-opacity="0"/>
</linearGradient>
<linearGradient id="paint14_linear_50_614" x1="0.132813" y1="330.737" x2="345.712" y2="330.737" gradientUnits="userSpaceOnUse">
<stop stop-color="#585858" stop-opacity="0"/>
<stop offset="0.148423" stop-color="#585858"/>
<stop offset="0.861994" stop-color="#585858"/>
<stop offset="1" stop-color="#585858" stop-opacity="0"/>
</linearGradient>
<linearGradient id="paint15_linear_50_614" x1="0.132813" y1="330.737" x2="345.712" y2="330.737" gradientUnits="userSpaceOnUse">
<stop stop-color="#585858" stop-opacity="0"/>
<stop offset="0.148423" stop-color="#585858"/>
<stop offset="0.861994" stop-color="#585858"/>
<stop offset="1" stop-color="#585858" stop-opacity="0"/>
</linearGradient>
<linearGradient id="paint16_linear_50_614" x1="0.132813" y1="330.737" x2="345.712" y2="330.737" gradientUnits="userSpaceOnUse">
<stop stop-color="#585858" stop-opacity="0"/>
<stop offset="0.148423" stop-color="#585858"/>
<stop offset="0.861994" stop-color="#585858"/>
<stop offset="1" stop-color="#585858" stop-opacity="0"/>
</linearGradient>
<linearGradient id="paint17_linear_50_614" x1="0.132813" y1="330.737" x2="345.712" y2="330.737" gradientUnits="userSpaceOnUse">
<stop stop-color="#585858" stop-opacity="0"/>
<stop offset="0.148423" stop-color="#585858"/>
<stop offset="0.861994" stop-color="#585858"/>
<stop offset="1" stop-color="#585858" stop-opacity="0"/>
</linearGradient>
<linearGradient id="paint18_linear_50_614" x1="0.132813" y1="330.737" x2="345.712" y2="330.737" gradientUnits="userSpaceOnUse">
<stop stop-color="#585858" stop-opacity="0"/>
<stop offset="0.148423" stop-color="#585858"/>
<stop offset="0.861994" stop-color="#585858"/>
<stop offset="1" stop-color="#585858" stop-opacity="0"/>
</linearGradient>
<linearGradient id="paint19_linear_50_614" x1="0.132813" y1="330.737" x2="345.712" y2="330.737" gradientUnits="userSpaceOnUse">
<stop stop-color="#585858" stop-opacity="0"/>
<stop offset="0.148423" stop-color="#585858"/>
<stop offset="0.861994" stop-color="#585858"/>
<stop offset="1" stop-color="#585858" stop-opacity="0"/>
</linearGradient>
<linearGradient id="paint20_linear_50_614" x1="0.132813" y1="330.737" x2="345.712" y2="330.737" gradientUnits="userSpaceOnUse">
<stop stop-color="#585858" stop-opacity="0"/>
<stop offset="0.148423" stop-color="#585858"/>
<stop offset="0.861994" stop-color="#585858"/>
<stop offset="1" stop-color="#585858" stop-opacity="0"/>
</linearGradient>
<linearGradient id="paint21_linear_50_614" x1="0.132813" y1="330.737" x2="345.712" y2="330.737" gradientUnits="userSpaceOnUse">
<stop stop-color="#585858" stop-opacity="0"/>
<stop offset="0.148423" stop-color="#585858"/>
<stop offset="0.861994" stop-color="#585858"/>
<stop offset="1" stop-color="#585858" stop-opacity="0"/>
</linearGradient>
<linearGradient id="paint22_linear_50_614" x1="0.132813" y1="330.737" x2="345.712" y2="330.737" gradientUnits="userSpaceOnUse">
<stop stop-color="#585858" stop-opacity="0"/>
<stop offset="0.148423" stop-color="#585858"/>
<stop offset="0.861994" stop-color="#585858"/>
<stop offset="1" stop-color="#585858" stop-opacity="0"/>
</linearGradient>
<linearGradient id="paint23_linear_50_614" x1="0.132813" y1="330.737" x2="345.712" y2="330.737" gradientUnits="userSpaceOnUse">
<stop stop-color="#585858" stop-opacity="0"/>
<stop offset="0.148423" stop-color="#585858"/>
<stop offset="0.861994" stop-color="#585858"/>
<stop offset="1" stop-color="#585858" stop-opacity="0"/>
</linearGradient>
<linearGradient id="paint24_linear_50_614" x1="0.132813" y1="330.737" x2="345.712" y2="330.737" gradientUnits="userSpaceOnUse">
<stop stop-color="#585858" stop-opacity="0"/>
<stop offset="0.148423" stop-color="#585858"/>
<stop offset="0.861994" stop-color="#585858"/>
<stop offset="1" stop-color="#585858" stop-opacity="0"/>
</linearGradient>
<linearGradient id="paint25_linear_50_614" x1="0.132813" y1="330.737" x2="345.712" y2="330.737" gradientUnits="userSpaceOnUse">
<stop stop-color="#585858" stop-opacity="0"/>
<stop offset="0.148423" stop-color="#585858"/>
<stop offset="0.861994" stop-color="#585858"/>
<stop offset="1" stop-color="#585858" stop-opacity="0"/>
</linearGradient>
<linearGradient id="paint26_linear_50_614" x1="0.132813" y1="330.737" x2="345.712" y2="330.737" gradientUnits="userSpaceOnUse">
<stop stop-color="#585858" stop-opacity="0"/>
<stop offset="0.148423" stop-color="#585858"/>
<stop offset="0.861994" stop-color="#585858"/>
<stop offset="1" stop-color="#585858" stop-opacity="0"/>
</linearGradient>
<linearGradient id="paint27_linear_50_614" x1="0.132813" y1="330.737" x2="345.712" y2="330.737" gradientUnits="userSpaceOnUse">
<stop stop-color="#585858" stop-opacity="0"/>
<stop offset="0.148423" stop-color="#585858"/>
<stop offset="0.861994" stop-color="#585858"/>
<stop offset="1" stop-color="#585858" stop-opacity="0"/>
</linearGradient>
<linearGradient id="paint28_linear_50_614" x1="0.132813" y1="330.737" x2="345.712" y2="330.737" gradientUnits="userSpaceOnUse">
<stop stop-color="#585858" stop-opacity="0"/>
<stop offset="0.148423" stop-color="#585858"/>
<stop offset="0.861994" stop-color="#585858"/>
<stop offset="1" stop-color="#585858" stop-opacity="0"/>
</linearGradient>
<linearGradient id="paint29_linear_50_614" x1="0.132813" y1="330.737" x2="345.712" y2="330.737" gradientUnits="userSpaceOnUse">
<stop stop-color="#585858" stop-opacity="0"/>
<stop offset="0.148423" stop-color="#585858"/>
<stop offset="0.861994" stop-color="#585858"/>
<stop offset="1" stop-color="#585858" stop-opacity="0"/>
</linearGradient>
<linearGradient id="paint30_linear_50_614" x1="0.132813" y1="330.737" x2="345.712" y2="330.737" gradientUnits="userSpaceOnUse">
<stop stop-color="#585858" stop-opacity="0"/>
<stop offset="0.148423" stop-color="#585858"/>
<stop offset="0.861994" stop-color="#585858"/>
<stop offset="1" stop-color="#585858" stop-opacity="0"/>
</linearGradient>
<linearGradient id="paint31_linear_50_614" x1="0.132813" y1="330.737" x2="345.712" y2="330.737" gradientUnits="userSpaceOnUse">
<stop stop-color="#585858" stop-opacity="0"/>
<stop offset="0.148423" stop-color="#585858"/>
<stop offset="0.861994" stop-color="#585858"/>
<stop offset="1" stop-color="#585858" stop-opacity="0"/>
</linearGradient>
<linearGradient id="paint32_linear_50_614" x1="0.132813" y1="330.737" x2="345.712" y2="330.737" gradientUnits="userSpaceOnUse">
<stop stop-color="#585858" stop-opacity="0"/>
<stop offset="0.148423" stop-color="#585858"/>
<stop offset="0.861994" stop-color="#585858"/>
<stop offset="1" stop-color="#585858" stop-opacity="0"/>
</linearGradient>
<linearGradient id="paint33_linear_50_614" x1="0.132813" y1="330.737" x2="345.712" y2="330.737" gradientUnits="userSpaceOnUse">
<stop stop-color="#585858" stop-opacity="0"/>
<stop offset="0.148423" stop-color="#585858"/>
<stop offset="0.861994" stop-color="#585858"/>
<stop offset="1" stop-color="#585858" stop-opacity="0"/>
</linearGradient>
<linearGradient id="paint34_linear_50_614" x1="0.132813" y1="330.737" x2="345.712" y2="330.737" gradientUnits="userSpaceOnUse">
<stop stop-color="#585858" stop-opacity="0"/>
<stop offset="0.148423" stop-color="#585858"/>
<stop offset="0.861994" stop-color="#585858"/>
<stop offset="1" stop-color="#585858" stop-opacity="0"/>
</linearGradient>
<linearGradient id="paint35_linear_50_614" x1="0.132813" y1="330.737" x2="345.712" y2="330.737" gradientUnits="userSpaceOnUse">
<stop stop-color="#585858" stop-opacity="0"/>
<stop offset="0.148423" stop-color="#585858"/>
<stop offset="0.861994" stop-color="#585858"/>
<stop offset="1" stop-color="#585858" stop-opacity="0"/>
</linearGradient>
<linearGradient id="paint36_linear_50_614" x1="0.132813" y1="207.574" x2="345.712" y2="207.574" gradientUnits="userSpaceOnUse">
<stop stop-color="#585858" stop-opacity="0"/>
<stop offset="0.148423" stop-color="#585858"/>
<stop offset="0.861994" stop-color="#585858"/>
<stop offset="1" stop-color="#585858" stop-opacity="0"/>
</linearGradient>
<linearGradient id="paint37_linear_50_614" x1="0.132813" y1="207.574" x2="345.712" y2="207.574" gradientUnits="userSpaceOnUse">
<stop stop-color="#585858" stop-opacity="0"/>
<stop offset="0.148423" stop-color="#585858"/>
<stop offset="0.861994" stop-color="#585858"/>
<stop offset="1" stop-color="#585858" stop-opacity="0"/>
</linearGradient>
<linearGradient id="paint38_linear_50_614" x1="0.132813" y1="207.574" x2="345.712" y2="207.574" gradientUnits="userSpaceOnUse">
<stop stop-color="#585858" stop-opacity="0"/>
<stop offset="0.148423" stop-color="#585858"/>
<stop offset="0.861994" stop-color="#585858"/>
<stop offset="1" stop-color="#585858" stop-opacity="0"/>
</linearGradient>
<linearGradient id="paint39_linear_50_614" x1="0.132813" y1="207.574" x2="345.712" y2="207.574" gradientUnits="userSpaceOnUse">
<stop stop-color="#585858" stop-opacity="0"/>
<stop offset="0.148423" stop-color="#585858"/>
<stop offset="0.861994" stop-color="#585858"/>
<stop offset="1" stop-color="#585858" stop-opacity="0"/>
</linearGradient>
<linearGradient id="paint40_linear_50_614" x1="0.132813" y1="207.574" x2="345.712" y2="207.574" gradientUnits="userSpaceOnUse">
<stop stop-color="#585858" stop-opacity="0"/>
<stop offset="0.148423" stop-color="#585858"/>
<stop offset="0.861994" stop-color="#585858"/>
<stop offset="1" stop-color="#585858" stop-opacity="0"/>
</linearGradient>
<linearGradient id="paint41_linear_50_614" x1="0.132813" y1="207.574" x2="345.712" y2="207.574" gradientUnits="userSpaceOnUse">
<stop stop-color="#585858" stop-opacity="0"/>
<stop offset="0.148423" stop-color="#585858"/>
<stop offset="0.861994" stop-color="#585858"/>
<stop offset="1" stop-color="#585858" stop-opacity="0"/>
</linearGradient>
<linearGradient id="paint42_linear_50_614" x1="0.132813" y1="207.574" x2="345.712" y2="207.574" gradientUnits="userSpaceOnUse">
<stop stop-color="#585858" stop-opacity="0"/>
<stop offset="0.148423" stop-color="#585858"/>
<stop offset="0.861994" stop-color="#585858"/>
<stop offset="1" stop-color="#585858" stop-opacity="0"/>
</linearGradient>
<linearGradient id="paint43_linear_50_614" x1="0.132813" y1="207.574" x2="345.712" y2="207.574" gradientUnits="userSpaceOnUse">
<stop stop-color="#585858" stop-opacity="0"/>
<stop offset="0.148423" stop-color="#585858"/>
<stop offset="0.861994" stop-color="#585858"/>
<stop offset="1" stop-color="#585858" stop-opacity="0"/>
</linearGradient>
<linearGradient id="paint44_linear_50_614" x1="0.132813" y1="207.574" x2="345.712" y2="207.574" gradientUnits="userSpaceOnUse">
<stop stop-color="#585858" stop-opacity="0"/>
<stop offset="0.148423" stop-color="#585858"/>
<stop offset="0.861994" stop-color="#585858"/>
<stop offset="1" stop-color="#585858" stop-opacity="0"/>
</linearGradient>
<linearGradient id="paint45_linear_50_614" x1="0.132813" y1="207.574" x2="345.712" y2="207.574" gradientUnits="userSpaceOnUse">
<stop stop-color="#585858" stop-opacity="0"/>
<stop offset="0.148423" stop-color="#585858"/>
<stop offset="0.861994" stop-color="#585858"/>
<stop offset="1" stop-color="#585858" stop-opacity="0"/>
</linearGradient>
<linearGradient id="paint46_linear_50_614" x1="0.132813" y1="207.574" x2="345.712" y2="207.574" gradientUnits="userSpaceOnUse">
<stop stop-color="#585858" stop-opacity="0"/>
<stop offset="0.148423" stop-color="#585858"/>
<stop offset="0.861994" stop-color="#585858"/>
<stop offset="1" stop-color="#585858" stop-opacity="0"/>
</linearGradient>
<linearGradient id="paint47_linear_50_614" x1="0.132813" y1="207.574" x2="345.712" y2="207.574" gradientUnits="userSpaceOnUse">
<stop stop-color="#585858" stop-opacity="0"/>
<stop offset="0.148423" stop-color="#585858"/>
<stop offset="0.861994" stop-color="#585858"/>
<stop offset="1" stop-color="#585858" stop-opacity="0"/>
</linearGradient>
<linearGradient id="paint48_linear_50_614" x1="0.132813" y1="207.574" x2="345.712" y2="207.574" gradientUnits="userSpaceOnUse">
<stop stop-color="#585858" stop-opacity="0"/>
<stop offset="0.148423" stop-color="#585858"/>
<stop offset="0.861994" stop-color="#585858"/>
<stop offset="1" stop-color="#585858" stop-opacity="0"/>
</linearGradient>
<linearGradient id="paint49_linear_50_614" x1="0.132813" y1="207.574" x2="345.712" y2="207.574" gradientUnits="userSpaceOnUse">
<stop stop-color="#585858" stop-opacity="0"/>
<stop offset="0.148423" stop-color="#585858"/>
<stop offset="0.861994" stop-color="#585858"/>
<stop offset="1" stop-color="#585858" stop-opacity="0"/>
</linearGradient>
<linearGradient id="paint50_linear_50_614" x1="0.132813" y1="207.574" x2="345.712" y2="207.574" gradientUnits="userSpaceOnUse">
<stop stop-color="#585858" stop-opacity="0"/>
<stop offset="0.148423" stop-color="#585858"/>
<stop offset="0.861994" stop-color="#585858"/>
<stop offset="1" stop-color="#585858" stop-opacity="0"/>
</linearGradient>
<linearGradient id="paint51_linear_50_614" x1="0.132813" y1="207.574" x2="345.712" y2="207.574" gradientUnits="userSpaceOnUse">
<stop stop-color="#585858" stop-opacity="0"/>
<stop offset="0.148423" stop-color="#585858"/>
<stop offset="0.861994" stop-color="#585858"/>
<stop offset="1" stop-color="#585858" stop-opacity="0"/>
</linearGradient>
<linearGradient id="paint52_linear_50_614" x1="0.132813" y1="207.574" x2="345.712" y2="207.574" gradientUnits="userSpaceOnUse">
<stop stop-color="#585858" stop-opacity="0"/>
<stop offset="0.148423" stop-color="#585858"/>
<stop offset="0.861994" stop-color="#585858"/>
<stop offset="1" stop-color="#585858" stop-opacity="0"/>
</linearGradient>
<linearGradient id="paint53_linear_50_614" x1="0.132813" y1="207.574" x2="345.712" y2="207.574" gradientUnits="userSpaceOnUse">
<stop stop-color="#585858" stop-opacity="0"/>
<stop offset="0.148423" stop-color="#585858"/>
<stop offset="0.861994" stop-color="#585858"/>
<stop offset="1" stop-color="#585858" stop-opacity="0"/>
</linearGradient>
<linearGradient id="paint54_linear_50_614" x1="0.132813" y1="207.574" x2="345.712" y2="207.574" gradientUnits="userSpaceOnUse">
<stop stop-color="#585858" stop-opacity="0"/>
<stop offset="0.148423" stop-color="#585858"/>
<stop offset="0.861994" stop-color="#585858"/>
<stop offset="1" stop-color="#585858" stop-opacity="0"/>
</linearGradient>
<linearGradient id="paint55_linear_50_614" x1="0.132813" y1="207.574" x2="345.712" y2="207.574" gradientUnits="userSpaceOnUse">
<stop stop-color="#585858" stop-opacity="0"/>
<stop offset="0.148423" stop-color="#585858"/>
<stop offset="0.861994" stop-color="#585858"/>
<stop offset="1" stop-color="#585858" stop-opacity="0"/>
</linearGradient>
<linearGradient id="paint56_linear_50_614" x1="0.132813" y1="207.574" x2="345.712" y2="207.574" gradientUnits="userSpaceOnUse">
<stop stop-color="#585858" stop-opacity="0"/>
<stop offset="0.148423" stop-color="#585858"/>
<stop offset="0.861994" stop-color="#585858"/>
<stop offset="1" stop-color="#585858" stop-opacity="0"/>
</linearGradient>
<linearGradient id="paint57_linear_50_614" x1="0.132813" y1="207.574" x2="345.712" y2="207.574" gradientUnits="userSpaceOnUse">
<stop stop-color="#585858" stop-opacity="0"/>
<stop offset="0.148423" stop-color="#585858"/>
<stop offset="0.861994" stop-color="#585858"/>
<stop offset="1" stop-color="#585858" stop-opacity="0"/>
</linearGradient>
<linearGradient id="paint58_linear_50_614" x1="0.132813" y1="207.574" x2="345.712" y2="207.574" gradientUnits="userSpaceOnUse">
<stop stop-color="#585858" stop-opacity="0"/>
<stop offset="0.148423" stop-color="#585858"/>
<stop offset="0.861994" stop-color="#585858"/>
<stop offset="1" stop-color="#585858" stop-opacity="0"/>
</linearGradient>
<linearGradient id="paint59_linear_50_614" x1="0.132813" y1="207.574" x2="345.712" y2="207.574" gradientUnits="userSpaceOnUse">
<stop stop-color="#585858" stop-opacity="0"/>
<stop offset="0.148423" stop-color="#585858"/>
<stop offset="0.861994" stop-color="#585858"/>
<stop offset="1" stop-color="#585858" stop-opacity="0"/>
</linearGradient>
<linearGradient id="paint60_linear_50_614" x1="0.132813" y1="207.574" x2="345.712" y2="207.574" gradientUnits="userSpaceOnUse">
<stop stop-color="#585858" stop-opacity="0"/>
<stop offset="0.148423" stop-color="#585858"/>
<stop offset="0.861994" stop-color="#585858"/>
<stop offset="1" stop-color="#585858" stop-opacity="0"/>
</linearGradient>
<linearGradient id="paint61_linear_50_614" x1="0.132813" y1="207.574" x2="345.712" y2="207.574" gradientUnits="userSpaceOnUse">
<stop stop-color="#585858" stop-opacity="0"/>
<stop offset="0.148423" stop-color="#585858"/>
<stop offset="0.861994" stop-color="#585858"/>
<stop offset="1" stop-color="#585858" stop-opacity="0"/>
</linearGradient>
<linearGradient id="paint62_linear_50_614" x1="0.132813" y1="207.574" x2="345.712" y2="207.574" gradientUnits="userSpaceOnUse">
<stop stop-color="#585858" stop-opacity="0"/>
<stop offset="0.148423" stop-color="#585858"/>
<stop offset="0.861994" stop-color="#585858"/>
<stop offset="1" stop-color="#585858" stop-opacity="0"/>
</linearGradient>
<linearGradient id="paint63_linear_50_614" x1="0.132813" y1="207.574" x2="345.712" y2="207.574" gradientUnits="userSpaceOnUse">
<stop stop-color="#585858" stop-opacity="0"/>
<stop offset="0.148423" stop-color="#585858"/>
<stop offset="0.861994" stop-color="#585858"/>
<stop offset="1" stop-color="#585858" stop-opacity="0"/>
</linearGradient>
<linearGradient id="paint64_linear_50_614" x1="0.132813" y1="207.574" x2="345.712" y2="207.574" gradientUnits="userSpaceOnUse">
<stop stop-color="#585858" stop-opacity="0"/>
<stop offset="0.148423" stop-color="#585858"/>
<stop offset="0.861994" stop-color="#585858"/>
<stop offset="1" stop-color="#585858" stop-opacity="0"/>
</linearGradient>
<linearGradient id="paint65_linear_50_614" x1="0.132813" y1="207.574" x2="345.712" y2="207.574" gradientUnits="userSpaceOnUse">
<stop stop-color="#585858" stop-opacity="0"/>
<stop offset="0.148423" stop-color="#585858"/>
<stop offset="0.861994" stop-color="#585858"/>
<stop offset="1" stop-color="#585858" stop-opacity="0"/>
</linearGradient>
<linearGradient id="paint66_linear_50_614" x1="0.132813" y1="207.574" x2="345.712" y2="207.574" gradientUnits="userSpaceOnUse">
<stop stop-color="#585858" stop-opacity="0"/>
<stop offset="0.148423" stop-color="#585858"/>
<stop offset="0.861994" stop-color="#585858"/>
<stop offset="1" stop-color="#585858" stop-opacity="0"/>
</linearGradient>
<linearGradient id="paint67_linear_50_614" x1="0.132813" y1="207.574" x2="345.712" y2="207.574" gradientUnits="userSpaceOnUse">
<stop stop-color="#585858" stop-opacity="0"/>
<stop offset="0.148423" stop-color="#585858"/>
<stop offset="0.861994" stop-color="#585858"/>
<stop offset="1" stop-color="#585858" stop-opacity="0"/>
</linearGradient>
<linearGradient id="paint68_linear_50_614" x1="0.132813" y1="207.574" x2="345.712" y2="207.574" gradientUnits="userSpaceOnUse">
<stop stop-color="#585858" stop-opacity="0"/>
<stop offset="0.148423" stop-color="#585858"/>
<stop offset="0.861994" stop-color="#585858"/>
<stop offset="1" stop-color="#585858" stop-opacity="0"/>
</linearGradient>
<linearGradient id="paint69_linear_50_614" x1="9.82816" y1="77.0705" x2="355.408" y2="77.0696" gradientUnits="userSpaceOnUse">
<stop stop-color="#797979" stop-opacity="0"/>
<stop offset="0.128891" stop-color="#585858"/>
<stop offset="0.873713" stop-color="#434343"/>
<stop offset="1" stop-color="#797979" stop-opacity="0"/>
</linearGradient>
<linearGradient id="paint70_linear_50_614" x1="9.82816" y1="454.165" x2="355.408" y2="454.164" gradientUnits="userSpaceOnUse">
<stop stop-color="#797979" stop-opacity="0"/>
<stop offset="0.128891" stop-color="#585858"/>
<stop offset="0.873713" stop-color="#434343"/>
<stop offset="1" stop-color="#797979" stop-opacity="0"/>
</linearGradient>
</defs>
</svg>
