<svg width="21" height="21" viewBox="0 0 21 21" fill="none" xmlns="http://www.w3.org/2000/svg">
<path d="M10.4598 0.972618C10.2785 0.975451 10.1057 1.0501 9.9794 1.18017C9.85309 1.31024 9.78354 1.48511 9.78603 1.66641V3.7197C9.78474 3.8104 9.8015 3.90044 9.83532 3.98461C9.86914 4.06877 9.91935 4.14537 9.98303 4.20996C10.0467 4.27455 10.1226 4.32584 10.2063 4.36085C10.29 4.39586 10.3798 4.41388 10.4705 4.41388C10.5612 4.41388 10.651 4.39586 10.7346 4.36085C10.8183 4.32584 10.8942 4.27455 10.9579 4.20996C11.0216 4.14537 11.0718 4.06877 11.1056 3.98461C11.1394 3.90044 11.1562 3.8104 11.1549 3.7197V1.66641C11.1561 1.57484 11.139 1.48395 11.1045 1.39912C11.07 1.31429 11.0188 1.23725 10.954 1.17255C10.8892 1.10786 10.812 1.05683 10.7272 1.02249C10.6423 0.988146 10.5513 0.971187 10.4598 0.972618ZM4.17155 3.58202C4.0355 3.58232 3.90264 3.62315 3.7899 3.6993C3.67717 3.77545 3.58969 3.88347 3.53862 4.00956C3.48755 4.13566 3.47521 4.27411 3.50318 4.40724C3.53115 4.54038 3.59816 4.66216 3.69565 4.75705L5.1474 6.20879C5.21046 6.27448 5.286 6.32692 5.36959 6.36305C5.45318 6.39917 5.54314 6.41826 5.63419 6.41918C5.72525 6.42011 5.81558 6.40286 5.89988 6.36844C5.98419 6.33402 6.06078 6.28312 6.12517 6.21873C6.18956 6.15434 6.24045 6.07775 6.27487 5.99345C6.30929 5.90914 6.32654 5.81881 6.32562 5.72776C6.32469 5.6367 6.30561 5.54675 6.26948 5.46316C6.23335 5.37957 6.18091 5.30403 6.11523 5.24096L4.66348 3.78922C4.59954 3.72349 4.52305 3.67128 4.43854 3.63569C4.35404 3.60009 4.26324 3.58184 4.17155 3.58202ZM16.748 3.58202C16.5702 3.58731 16.4014 3.66163 16.2774 3.78922L14.8257 5.24096C14.76 5.30403 14.7076 5.37957 14.6714 5.46316C14.6353 5.54674 14.6162 5.6367 14.6153 5.72776C14.6144 5.81881 14.6316 5.90914 14.6661 5.99344C14.7005 6.07775 14.7514 6.15434 14.8158 6.21873C14.8801 6.28312 14.9567 6.33401 15.041 6.36843C15.1253 6.40285 15.2157 6.4201 15.3067 6.41918C15.3978 6.41825 15.4877 6.39917 15.5713 6.36304C15.6549 6.32692 15.7305 6.27448 15.7935 6.20879L17.2453 4.75705C17.3442 4.66091 17.4117 4.53714 17.4391 4.40195C17.4664 4.26676 17.4523 4.12646 17.3985 3.99944C17.3448 3.87242 17.2539 3.7646 17.1378 3.69011C17.0217 3.61563 16.8859 3.57795 16.748 3.58202ZM10.4705 5.773C9.1998 5.773 7.98118 6.27777 7.08269 7.17626C6.1842 8.07475 5.67943 9.29337 5.67943 10.564C5.67943 11.8347 6.1842 13.0533 7.08269 13.9518C7.98118 14.8503 9.1998 15.3551 10.4705 15.3551C11.7411 15.3551 12.9597 14.8503 13.8582 13.9518C14.7567 13.0533 15.2615 11.8347 15.2615 10.564C15.2615 9.29337 14.7567 8.07475 13.8582 7.17626C12.9597 6.27777 11.7411 5.773 10.4705 5.773ZM1.57284 9.87959C1.48215 9.87831 1.3921 9.89507 1.30794 9.92889C1.22377 9.96271 1.14717 10.0129 1.08258 10.0766C1.01799 10.1403 0.966704 10.2162 0.931697 10.2998C0.89669 10.3835 0.878662 10.4733 0.878662 10.564C0.878662 10.6547 0.89669 10.7445 0.931697 10.8282C0.966704 10.9119 1.01799 10.9878 1.08258 11.0515C1.14717 11.1151 1.22377 11.1653 1.30794 11.1992C1.3921 11.233 1.48215 11.2497 1.57284 11.2485H3.62614C3.71683 11.2497 3.80688 11.233 3.89104 11.1992C3.97521 11.1653 4.05181 11.1151 4.1164 11.0515C4.18099 10.9878 4.23228 10.9119 4.26728 10.8282C4.30229 10.7445 4.32032 10.6547 4.32032 10.564C4.32032 10.4733 4.30229 10.3835 4.26728 10.2998C4.23228 10.2162 4.18099 10.1403 4.1164 10.0766C4.05181 10.0129 3.97521 9.96271 3.89104 9.92889C3.80688 9.89507 3.71683 9.87831 3.62614 9.87959H1.57284ZM17.3148 9.87959C17.2241 9.87831 17.134 9.89507 17.0499 9.92889C16.9657 9.96271 16.8891 10.0129 16.8245 10.0766C16.7599 10.1403 16.7086 10.2162 16.6736 10.2998C16.6386 10.3835 16.6206 10.4733 16.6206 10.564C16.6206 10.6547 16.6386 10.7445 16.6736 10.8282C16.7086 10.9119 16.7599 10.9878 16.8245 11.0515C16.8891 11.1151 16.9657 11.1653 17.0499 11.1992C17.134 11.233 17.2241 11.2497 17.3148 11.2485H19.3681C19.4588 11.2497 19.5488 11.233 19.633 11.1992C19.7171 11.1653 19.7937 11.1151 19.8583 11.0515C19.9229 10.9878 19.9742 10.9119 20.0092 10.8282C20.0442 10.7445 20.0623 10.6547 20.0623 10.564C20.0623 10.4733 20.0442 10.3835 20.0092 10.2998C19.9742 10.2162 19.9229 10.1403 19.8583 10.0766C19.7937 10.0129 19.7171 9.96271 19.633 9.92889C19.5488 9.89507 19.4588 9.87831 19.3681 9.87959H17.3148ZM5.61794 14.7121C5.44013 14.7174 5.27136 14.7917 5.1474 14.9193L3.69565 16.371C3.62997 16.4341 3.57752 16.5096 3.5414 16.5932C3.50527 16.6768 3.48619 16.7667 3.48526 16.8578C3.48434 16.9489 3.50159 17.0392 3.53601 17.1235C3.57043 17.2078 3.62132 17.2844 3.68571 17.3488C3.7501 17.4132 3.82669 17.4641 3.911 17.4985C3.9953 17.5329 4.08563 17.5501 4.17668 17.5492C4.26774 17.5483 4.3577 17.5292 4.44129 17.4931C4.52487 17.457 4.60041 17.4045 4.66348 17.3388L6.11523 15.8871C6.21413 15.791 6.28168 15.6672 6.30903 15.532C6.33638 15.3968 6.32225 15.2565 6.26849 15.1295C6.21474 15.0025 6.12386 14.8946 6.00778 14.8202C5.89169 14.7457 5.75581 14.708 5.61794 14.7121ZM15.3029 14.7121C15.1668 14.7121 15.0337 14.7527 14.9208 14.8288C14.8078 14.9048 14.7201 15.0128 14.6689 15.139C14.6177 15.2651 14.6052 15.4037 14.6332 15.537C14.6611 15.6702 14.7281 15.7921 14.8257 15.8871L16.2774 17.3388C16.3405 17.4045 16.416 17.457 16.4996 17.4931C16.5832 17.5292 16.6732 17.5483 16.7642 17.5492C16.8553 17.5501 16.9456 17.5329 17.0299 17.4985C17.1142 17.4641 17.1908 17.4132 17.2552 17.3488C17.3196 17.2844 17.3705 17.2078 17.4049 17.1235C17.4393 17.0392 17.4566 16.9489 17.4557 16.8578C17.4547 16.7667 17.4356 16.6768 17.3995 16.5932C17.3634 16.5096 17.311 16.4341 17.2453 16.371L15.7935 14.9193C15.7297 14.8537 15.6535 14.8016 15.5692 14.766C15.4849 14.7304 15.3944 14.7121 15.3029 14.7121ZM10.4598 16.7146C10.2785 16.7174 10.1057 16.792 9.9794 16.9221C9.85309 17.0522 9.78354 17.2271 9.78603 17.4083V19.4616C9.78474 19.5523 9.8015 19.6424 9.83532 19.7265C9.86914 19.8107 9.91935 19.8873 9.98303 19.9519C10.0467 20.0165 10.1226 20.0678 10.2063 20.1028C10.29 20.1378 10.3798 20.1558 10.4705 20.1558C10.5612 20.1558 10.651 20.1378 10.7346 20.1028C10.8183 20.0678 10.8942 20.0165 10.9579 19.9519C11.0216 19.8873 11.0718 19.8107 11.1056 19.7265C11.1394 19.6424 11.1562 19.5523 11.1549 19.4616V17.4083C11.1561 17.3168 11.139 17.2259 11.1045 17.1411C11.07 17.0562 11.0188 16.9792 10.954 16.9145C10.8892 16.8498 10.812 16.7988 10.7272 16.7644C10.6423 16.7301 10.5513 16.7131 10.4598 16.7146Z" fill="#D9D9D9"/>
</svg>
